<?xml version="1.0" encoding="utf-8"?>
<svg viewBox="0 0 320.422 317.479" xmlns="http://www.w3.org/2000/svg" xmlns:bx="https://boxy-svg.com">
  <g>
    <path fill="#fbf5ea" opacity="NaN" d="M 0 2.479 L 301 0 C 317 0 337.25 18.229 296.5 40.104 C 255.75 61.979 224.75 51.76 205.094 83.932 C 191.266 108.018 206.271 149.884 188.051 164.176 C 169.831 178.468 166.063 166.506 119.797 173 C 73.532 179.493 87.266 252.986 0 317.479 L 0 2.479 Z" stroke-width="0"/>
    <path fill="#fffbf4" opacity="NaN" d="M 0 0 C 0 0 179.2 0 268.796 0.51 C 280.468 0.556 302.25 14.229 274.5 39.104 C 260.625 51.541 219.75 49.76 200.094 81.932 C 190.266 98.018 198.492 123.592 188.051 156.176 C 182.831 172.468 153.063 159.506 113.797 169 C 74.532 178.493 63.266 244.986 0 291.479 L 0 0 Z" stroke-width="0" bx:origin="0.5 0"/>
  </g>
</svg>